<svg width="28" height="28" viewBox="0 0 28 28" fill="none" xmlns="http://www.w3.org/2000/svg">
<circle cx="14" cy="14" r="13.5" fill="#F4F4F4" stroke="#E0E0E0"/>
<g clip-path="url(#clip0_4_9070)">
<path d="M13.9999 21.56C11.9775 21.56 10.1377 20.7612 8.7798 19.4633C8.69564 19.386 8.61443 19.3053 8.53715 19.2206C7.23876 17.8627 6.43994 16.0224 6.43994 14C6.43994 11.9653 7.24811 10.1157 8.56029 8.75525C8.61984 8.68487 8.68481 8.6199 8.75519 8.56035C10.1156 7.24817 11.9652 6.44 13.9999 6.44C16.0223 6.44 17.8626 7.23882 19.2206 8.53672C19.3052 8.61399 19.386 8.69521 19.4632 8.77937C20.7611 10.1373 21.5599 11.9771 21.5599 13.9995C21.5599 16.0578 20.7331 17.9267 19.3943 19.291C19.3618 19.3269 19.3274 19.3614 19.2914 19.3939C17.9271 20.7336 16.0583 21.56 13.9999 21.56ZM12.1311 20.4078C12.6031 20.8995 13.2666 21.2056 13.9999 21.2056C15.4288 21.2056 16.5913 20.0436 16.5913 18.6143C16.5913 18.5527 16.5893 18.4917 16.5849 18.4312C16.5775 18.3819 16.5731 18.3322 16.5701 18.2815C16.4628 17.4468 15.9564 16.7346 15.2491 16.3438C15.255 16.4319 15.2585 16.5205 15.2585 16.6101C15.2585 18.4902 13.9109 20.0608 12.1311 20.4078ZM16.893 19.1694C16.7503 19.9161 16.325 20.5628 15.7334 20.995C16.6518 20.7671 17.5014 20.363 18.2441 19.8201C17.6987 19.8339 17.1992 19.577 16.893 19.1694ZM10.7377 20.424C11.2191 20.6696 11.7314 20.8626 12.2669 20.995C12.0592 20.8434 11.8722 20.6652 11.7103 20.4659C11.3869 20.4915 11.0532 20.4772 10.7377 20.424ZM9.02147 19.2044C9.66525 19.793 10.5359 20.1558 11.4711 20.1233C11.2063 19.6818 11.0542 19.1655 11.0542 18.6143C11.0542 16.99 12.3757 15.6685 13.9999 15.6685C14.2785 15.6685 14.5487 15.7074 14.8047 15.7807C14.4311 14.2422 13.0417 13.0963 11.3899 13.0963C9.45213 13.0963 7.87565 14.6728 7.87565 16.6111C7.87565 17.5231 8.22461 18.3544 8.79604 18.9795C8.86938 19.0558 8.94468 19.1311 9.02147 19.2044ZM13.9999 16.0229C12.5711 16.0229 11.4086 17.1849 11.4086 18.6143C11.4086 19.1626 11.5799 19.672 11.8722 20.0918C13.5826 19.856 14.9036 18.3844 14.9036 16.6106C14.9036 16.4634 14.8942 16.3182 14.877 16.1755C14.6034 16.077 14.3076 16.0229 13.9999 16.0229ZM16.9373 18.3918C17.0323 18.9996 17.5604 19.4667 18.1949 19.4667C18.5231 19.4667 18.8224 19.3417 19.0483 19.137C19.0783 19.1074 19.1074 19.0784 19.1369 19.0484C19.3417 18.8225 19.4667 18.5232 19.4667 18.1949C19.4667 17.4931 18.8962 16.9226 18.1949 16.9226C17.493 16.9226 16.9226 17.4931 16.9226 18.1949C16.9226 18.2136 16.9226 18.2323 16.9235 18.2505C16.9289 18.2968 16.9339 18.344 16.9373 18.3918ZM18.1944 16.5677C19.0911 16.5677 19.821 17.2977 19.821 18.1949C19.821 18.2112 19.8206 18.2274 19.8201 18.2441C20.6912 17.053 21.2051 15.5858 21.2051 14.0005C21.2051 12.8271 20.9235 11.7182 20.4235 10.7383C20.4594 10.9504 20.4786 11.1684 20.4786 11.3904C20.4786 13.5236 18.7432 15.259 16.61 15.259C15.9633 15.259 15.3525 15.0995 14.816 14.8175C14.9956 15.1596 15.1256 15.5312 15.196 15.9235C15.8855 16.2316 16.4368 16.7966 16.7242 17.497C16.987 16.9477 17.5471 16.5677 18.1944 16.5677ZM8.17687 9.75981C7.30767 10.9504 6.79432 12.4166 6.79432 14C6.79432 15.1734 7.07634 16.2828 7.5764 17.2627C7.53998 17.0506 7.52128 16.8325 7.52128 16.6106C7.52128 14.4774 9.25673 12.742 11.3899 12.742C12.0366 12.742 12.6464 12.9014 13.1829 13.183C13.0033 12.8409 12.8733 12.4693 12.8029 12.077C12.1124 11.7684 11.5612 11.2014 11.2732 10.5001C11.0119 11.0493 10.4513 11.4298 9.80355 11.4298C8.90679 11.4298 8.17687 10.7004 8.17687 9.80312C8.17638 9.78885 8.17687 9.77457 8.17687 9.75981ZM13.1947 12.2198C13.5688 13.7583 14.9582 14.9037 16.61 14.9037C18.5478 14.9037 20.1242 13.3272 20.1242 11.3899C20.1242 10.4784 19.7758 9.6466 19.2043 9.02153C19.131 8.94474 19.0557 8.86944 18.9789 8.79561C18.3533 8.22418 17.522 7.87522 16.6105 7.87522C16.5829 7.87522 16.5564 7.87571 16.5293 7.87621C16.7936 8.3177 16.9462 8.834 16.9462 9.38525C16.9462 11.0095 15.6242 12.331 14.0004 12.331C13.7209 12.3315 13.4507 12.2926 13.1947 12.2198ZM13.1224 11.8245C13.3965 11.923 13.6923 11.9771 13.9999 11.9771C15.4288 11.9771 16.5913 10.8146 16.5913 9.38574C16.5913 8.83696 16.42 8.32803 16.1282 7.90869C14.4178 8.14445 13.0963 9.61609 13.0963 11.3899C13.0958 11.5371 13.1051 11.6818 13.1224 11.8245ZM11.4258 9.68401C11.5237 10.5335 12.0341 11.259 12.7508 11.6552C12.7449 11.5671 12.7419 11.479 12.7419 11.3894C12.7419 9.50978 14.0895 7.93871 15.8693 7.59221C15.3973 7.10101 14.7333 6.79438 13.9999 6.79438C12.5711 6.79438 11.4086 7.95692 11.4086 9.38574C11.4086 9.4576 11.4115 9.52946 11.4174 9.60034C11.4209 9.6279 11.4238 9.65596 11.4258 9.68401ZM8.82361 8.99199C8.641 9.21249 8.53075 9.49501 8.53075 9.80312C8.53075 10.505 9.10169 11.0754 9.80306 11.0754C10.5049 11.0754 11.0754 10.5045 11.0754 9.80312C11.0754 9.77408 11.0744 9.74553 11.0724 9.71699C11.0695 9.6909 11.067 9.66432 11.0645 9.63774C10.9838 9.01414 10.4488 8.53082 9.80306 8.53082C9.49495 8.53082 9.21243 8.64106 8.99193 8.82367C8.93484 8.87879 8.87873 8.9349 8.82361 8.99199ZM9.80306 8.17644C10.3361 8.17644 10.8096 8.43385 11.1064 8.83056C11.2491 8.0844 11.6748 7.43668 12.2665 7.00503C11.35 7.23242 10.5015 7.63602 9.75975 8.17693C9.77451 8.17693 9.78879 8.17644 9.80306 8.17644ZM16.6105 7.52134C16.8325 7.52134 17.051 7.54004 17.2627 7.57646C16.7813 7.33086 16.2684 7.13792 15.7334 7.00503C15.9411 7.15663 16.1282 7.3348 16.2901 7.53463C16.3954 7.52577 16.5022 7.52134 16.6105 7.52134Z" fill="black"/>
</g>
<defs>
<clipPath id="clip0_4_9070">
<rect width="15.75" height="15.75" fill="white" transform="translate(6.125 6.125)"/>
</clipPath>
</defs>
</svg>
