<svg width="64" height="64" viewBox="0 0 64 64" fill="none" xmlns="http://www.w3.org/2000/svg">
<g id="Empty state illustration">
<path id="Vector" d="M32.0003 62.6721L8.9043 49.3361L32.0003 36.0081L55.0883 49.3361L32.0003 62.6721Z" fill="url(#paint0_linear_35_697)"/>
<path id="Vector_2" d="M32.0005 54.6801L8.89648 41.3441L8.90448 14.6641L32.0005 27.9921V54.6801Z" fill="url(#paint1_linear_35_697)"/>
<path id="Vector_3" d="M55.104 41.3441L32 54.6801V27.9921L55.096 14.6641L55.104 41.3441Z" fill="url(#paint2_linear_35_697)"/>
<path id="Vector_4" d="M32.0003 27.9919L8.9043 14.6639L32.0003 1.32788L55.0963 14.6639L32.0003 27.9919Z" fill="url(#paint3_linear_35_697)"/>
<path id="Vector_5" d="M20.7756 21.3361L43.7116 8.09605L43.3756 7.90405L20.4316 21.1521L20.7756 21.3361Z" fill="#C6C6C6"/>
<path id="Vector_6" d="M32.0003 28.1921L8.9043 14.8561V14.6641L9.0723 14.5681L32.1683 27.9041L32.0003 27.9921V28.1921Z" fill="white"/>
<path id="Vector_7" d="M17.1918 26.6639L10.6318 22.8799L10.6398 18.3279L17.1918 22.1199V26.6639Z" fill="white"/>
</g>
<defs>
<linearGradient id="paint0_linear_35_697" x1="14.6803" y1="59.3361" x2="49.3203" y2="39.3361" gradientUnits="userSpaceOnUse">
<stop stop-color="#525252" stop-opacity="0.05"/>
<stop offset="1" stop-opacity="0.1"/>
</linearGradient>
<linearGradient id="paint1_linear_35_697" x1="12.1285" y1="34.6721" x2="32.2485" y2="34.6721" gradientUnits="userSpaceOnUse">
<stop stop-color="#E0E0E0"/>
<stop offset="1" stop-color="#C6C6C6"/>
</linearGradient>
<linearGradient id="paint2_linear_35_697" x1="32" y1="34.6721" x2="55.104" y2="34.6721" gradientUnits="userSpaceOnUse">
<stop stop-color="#A8A8A8"/>
<stop offset="1" stop-color="#C6C6C6"/>
</linearGradient>
<linearGradient id="paint3_linear_35_697" x1="14.6803" y1="24.6639" x2="49.3203" y2="4.66388" gradientUnits="userSpaceOnUse">
<stop stop-color="#F4F4F4"/>
<stop offset="1" stop-color="#E0E0E0"/>
</linearGradient>
</defs>
</svg>
