<svg width="16" height="16" viewBox="0 0 16 16" fill="none" xmlns="http://www.w3.org/2000/svg">
<g id="watsonx 1" clip-path="url(#clip0_4_9067)">
<path id="watsonx_00000096045775141933061270000004769346562598860708_" d="M7.99994 15.56C5.97754 15.56 4.13775 14.7612 2.7798 13.4633C2.69564 13.386 2.61443 13.3053 2.53715 13.2206C1.23876 11.8627 0.439941 10.0224 0.439941 8C0.439941 5.9653 1.24811 4.11566 2.56029 2.75525C2.61984 2.68487 2.68481 2.6199 2.75519 2.56035C4.1156 1.24817 5.96524 0.440002 7.99994 0.440002C10.0223 0.440002 11.8626 1.23882 13.2206 2.53672C13.3052 2.61399 13.386 2.69521 13.4632 2.77937C14.7611 4.13732 15.5599 5.97711 15.5599 7.99951C15.5599 10.0578 14.7331 11.9267 13.3943 13.291C13.3618 13.3269 13.3274 13.3614 13.2914 13.3939C11.9271 14.7336 10.0583 15.56 7.99994 15.56ZM6.13111 14.4078C6.60311 14.8995 7.26658 15.2056 7.99994 15.2056C9.42876 15.2056 10.5913 14.0436 10.5913 12.6143C10.5913 12.5527 10.5893 12.4917 10.5849 12.4312C10.5775 12.3819 10.5731 12.3322 10.5701 12.2815C10.4628 11.4468 9.95639 10.7346 9.24911 10.3438C9.25502 10.4319 9.25846 10.5205 9.25846 10.6101C9.25846 12.4902 7.91086 14.0608 6.13111 14.4078ZM10.893 13.1694C10.7503 13.9161 10.325 14.5628 9.73343 14.995C10.6518 14.7671 11.5014 14.363 12.2441 13.8201C11.6987 13.8339 11.1992 13.577 10.893 13.1694ZM4.73772 14.424C5.21908 14.6696 5.73145 14.8626 6.26695 14.995C6.05925 14.8434 5.87221 14.6652 5.71028 14.4659C5.38692 14.4915 5.05321 14.4772 4.73772 14.424ZM3.02147 13.2044C3.66525 13.793 4.53593 14.1558 5.47108 14.1233C5.20628 13.6818 5.0542 13.1655 5.0542 12.6143C5.0542 10.99 6.37572 9.66852 7.99994 9.66852C8.27852 9.66852 8.54873 9.7074 8.80467 9.78074C8.4311 8.24216 7.04165 7.09635 5.38987 7.09635C3.45213 7.09635 1.87565 8.67282 1.87565 10.6111C1.87565 11.5231 2.22461 12.3544 2.79604 12.9795C2.86938 13.0558 2.94468 13.1311 3.02147 13.2044ZM7.99994 10.0229C6.57112 10.0229 5.40857 11.1849 5.40857 12.6143C5.40857 13.1626 5.57986 13.672 5.87221 14.0918C7.58257 13.856 8.9036 12.3844 8.9036 10.6106C8.9036 10.4634 8.89425 10.3182 8.87702 10.1755C8.60336 10.077 8.30756 10.0229 7.99994 10.0229ZM10.9373 12.3918C11.0323 12.9996 11.5604 13.4667 12.1949 13.4667C12.5231 13.4667 12.8224 13.3417 13.0483 13.137C13.0783 13.1074 13.1074 13.0784 13.1369 13.0484C13.3417 12.8225 13.4667 12.5232 13.4667 12.1949C13.4667 11.4931 12.8962 10.9226 12.1949 10.9226C11.493 10.9226 10.9226 11.4931 10.9226 12.1949C10.9226 12.2136 10.9226 12.2323 10.9235 12.2505C10.9289 12.2968 10.9339 12.344 10.9373 12.3918ZM12.1944 10.5677C13.0911 10.5677 13.821 11.2977 13.821 12.1949C13.821 12.2112 13.8206 12.2274 13.8201 12.2441C14.6912 11.053 15.2051 9.58583 15.2051 8.00049C15.2051 6.82712 14.9235 5.71822 14.4235 4.73828C14.4594 4.95041 14.4786 5.16845 14.4786 5.39042C14.4786 7.52356 12.7432 9.25902 10.61 9.25902C9.96328 9.25902 9.35247 9.09955 8.81599 8.81753C8.99564 9.1596 9.12558 9.5312 9.19596 9.92347C9.88551 10.2316 10.4368 10.7966 10.7242 11.497C10.987 10.9477 11.5471 10.5677 12.1944 10.5677ZM2.17687 3.75981C1.30767 4.95041 0.794316 6.41664 0.794316 8C0.794316 9.17338 1.07634 10.2828 1.5764 11.2627C1.53998 11.0506 1.52128 10.8325 1.52128 10.6106C1.52128 8.47742 3.25673 6.74197 5.38987 6.74197C6.0366 6.74197 6.64643 6.90144 7.18291 7.18297C7.00326 6.8409 6.87332 6.4693 6.80294 6.07703C6.1124 5.76842 5.56115 5.20142 5.27322 4.50006C5.01187 5.04934 4.45127 5.4298 3.80355 5.4298C2.90679 5.4298 2.17687 4.70038 2.17687 3.80312C2.17638 3.78885 2.17687 3.77457 2.17687 3.75981ZM7.19472 6.21976C7.56879 7.75834 8.95823 8.90366 10.61 8.90366C12.5478 8.90366 14.1242 7.32718 14.1242 5.38993C14.1242 4.4784 13.7758 3.6466 13.2043 3.02153C13.131 2.94474 13.0557 2.86944 12.9789 2.79561C12.3533 2.22418 11.522 1.87522 10.6105 1.87522C10.5829 1.87522 10.5564 1.87571 10.5293 1.87621C10.7936 2.3177 10.9462 2.834 10.9462 3.38525C10.9462 5.00947 9.62416 6.33099 8.00043 6.33099C7.72087 6.33149 7.45066 6.2926 7.19472 6.21976ZM7.12237 5.82453C7.39652 5.92297 7.69232 5.97711 7.99994 5.97711C9.42876 5.97711 10.5913 4.81457 10.5913 3.38574C10.5913 2.83696 10.42 2.32803 10.1282 1.90869C8.41781 2.14445 7.09628 3.61609 7.09628 5.38993C7.09579 5.5371 7.10514 5.6818 7.12237 5.82453ZM5.4258 3.68401C5.52375 4.53353 6.03414 5.25901 6.75077 5.65522C6.74486 5.56712 6.74191 5.47902 6.74191 5.38944C6.74191 3.50978 8.08952 1.93871 9.86927 1.59221C9.39726 1.10101 8.7333 0.794377 7.99994 0.794377C6.57112 0.794377 5.40857 1.95692 5.40857 3.38574C5.40857 3.4576 5.41153 3.52946 5.41743 3.60034C5.42088 3.6279 5.42383 3.65596 5.4258 3.68401ZM2.82361 2.99199C2.641 3.21249 2.53075 3.49501 2.53075 3.80312C2.53075 4.50498 3.10169 5.07542 3.80306 5.07542C4.50492 5.07542 5.07536 4.50449 5.07536 3.80312C5.07536 3.77408 5.07438 3.74553 5.07241 3.71699C5.06946 3.6909 5.067 3.66432 5.06454 3.63774C4.98382 3.01414 4.44881 2.53082 3.80306 2.53082C3.49495 2.53082 3.21243 2.64106 2.99193 2.82367C2.93484 2.87879 2.87873 2.9349 2.82361 2.99199ZM3.80306 2.17644C4.3361 2.17644 4.80958 2.43385 5.10637 2.83056C5.24911 2.0844 5.67485 1.43668 6.26646 1.00503C5.35 1.23242 4.50147 1.63602 3.75975 2.17693C3.77451 2.17693 3.78879 2.17644 3.80306 2.17644ZM10.6105 1.52134C10.8325 1.52134 11.051 1.54004 11.2627 1.57646C10.7813 1.33086 10.2684 1.13792 9.73343 1.00503C9.94113 1.15663 10.1282 1.3348 10.2901 1.53463C10.3954 1.52577 10.5022 1.52134 10.6105 1.52134Z" fill="black"/>
</g>
<defs>
<clipPath id="clip0_4_9067">
<rect width="15.75" height="15.75" fill="white" transform="translate(0.125 0.125)"/>
</clipPath>
</defs>
</svg>
