<svg width="44" height="44" viewBox="0 0 44 44" fill="none" xmlns="http://www.w3.org/2000/svg">
<g clip-path="url(#clip0_9_11223)">
<rect width="44" height="44" fill="white"/>
<rect width="44" height="44" fill="white" style="mix-blend-mode:multiply"/>
<path d="M38.5 8.25H5.5V11H38.5V8.25Z" fill="white"/>
<path d="M38.5 33H5.5V35.75H38.5V33Z" fill="white"/>
<path d="M38.5 16.5H5.5V19.25H38.5V16.5Z" fill="white"/>
<path d="M38.5 24.75H5.5V27.5H38.5V24.75Z" fill="white"/>
<rect width="44" height="44" fill="white" fill-opacity="0.01" style="mix-blend-mode:multiply"/>
<path d="M22.8419 3.04408C22.5978 2.85363 22.2971 2.75018 21.9876 2.75018C21.678 2.75018 21.3773 2.85363 21.1332 3.04408L1.375 18.4518L3.08371 20.6129L5.5 18.7288V35.7501C5.50149 36.479 5.7917 37.1776 6.3071 37.693C6.8225 38.2084 7.52111 38.4986 8.25 38.5001H35.75C36.4789 38.4988 37.1776 38.2086 37.6931 37.6932C38.2085 37.1777 38.4987 36.479 38.5 35.7501V18.7414L40.9163 20.6251L42.625 18.4639L22.8419 3.04408ZM24.75 35.7501H19.25V24.7501H24.75V35.7501ZM27.5 35.7501V24.7501C27.4992 24.021 27.2092 23.322 26.6936 22.8065C26.1781 22.2909 25.4791 22.0009 24.75 22.0001H19.25C18.5209 22.0008 17.8218 22.2908 17.3063 22.8064C16.7907 23.3219 16.5007 24.021 16.5 24.7501V35.7501H8.25V16.5847L22 5.87342L35.75 16.5991V35.7501H27.5Z" fill="#333333"/>
</g>
<defs>
<clipPath id="clip0_9_11223">
<rect width="44" height="44" fill="white"/>
</clipPath>
</defs>
</svg>
