<svg width="44" height="44" viewBox="0 0 44 44" fill="none" xmlns="http://www.w3.org/2000/svg">
<g clip-path="url(#clip0_9_11226)">
<rect width="44" height="44" fill="white"/>
<rect width="44" height="44" fill="white" style="mix-blend-mode:multiply"/>
<path d="M38.5 8.25H5.5V11H38.5V8.25Z" fill="white"/>
<path d="M38.5 33H5.5V35.75H38.5V33Z" fill="white"/>
<path d="M38.5 16.5H5.5V19.25H38.5V16.5Z" fill="white"/>
<path d="M38.5 24.75H5.5V27.5H38.5V24.75Z" fill="white"/>
<rect width="44" height="44" transform="matrix(-4.37114e-08 1 1 4.37114e-08 0 0)" fill="white" fill-opacity="0.01" style="mix-blend-mode:multiply"/>
<path d="M38.5 24.75C38.5 28.0134 37.5323 31.2035 35.7192 33.9169C33.9062 36.6303 31.3292 38.7452 28.3143 39.994C25.2993 41.2429 21.9817 41.5696 18.781 40.933C15.5803 40.2963 12.6403 38.7248 10.3327 36.4173C8.02516 34.1097 6.45369 31.1697 5.81703 27.969C5.18038 24.7683 5.50713 21.4507 6.75598 18.4357C8.00483 15.4207 10.1197 12.8438 12.8331 11.0308C15.5465 9.21771 18.7366 8.25 22 8.25L30.525 8.25L25.575 3.3L27.5 1.375L35.75 9.625L27.5 17.875L25.575 15.95L30.525 11L22 11C19.2805 11 16.6221 11.8064 14.3609 13.3173C12.0997 14.8282 10.3374 16.9756 9.29665 19.4881C8.25594 22.0006 7.98365 24.7653 8.51419 27.4325C9.04474 30.0997 10.3543 32.5497 12.2773 34.4727C14.2002 36.3957 16.6503 37.7053 19.3175 38.2358C21.9847 38.7663 24.7494 38.4941 27.2619 37.4533C29.7744 36.4126 31.9218 34.6503 33.4327 32.3891C34.9436 30.1279 35.75 27.4695 35.75 24.75L38.5 24.75Z" fill="#333333"/>
</g>
<defs>
<clipPath id="clip0_9_11226">
<rect width="44" height="44" fill="white"/>
</clipPath>
</defs>
</svg>
